Coordinates
version=1
nRows=10
nColumns=40
inDegrees=yes

Units are S.I. units (second, meters, Newtons, ...)
If the header above contains a line with 'inDegrees', this indicates whether rotational values are in degrees (yes) or radians (no).

endheader
time	pelvis_tilt	pelvis_list	pelvis_rotation	pelvis_tx	pelvis_ty	pelvis_tz	hip_flexion_r	hip_adduction_r	hip_rotation_r	knee_angle_r	knee_angle_r_beta	ankle_angle_r	subtalar_angle_r	mtp_angle_r	hip_flexion_l	hip_adduction_l	hip_rotation_l	knee_angle_l	knee_angle_l_beta	ankle_angle_l	subtalar_angle_l	mtp_angle_l	lumbar_extension	lumbar_bending	lumbar_rotation	arm_flex_r	arm_add_r	arm_rot_r	elbow_flex_r	pro_sup_r	wrist_flex_r	wrist_dev_r	arm_flex_l	arm_add_l	arm_rot_l	elbow_flex_l	pro_sup_l	wrist_flex_l	wrist_dev_l
      2.17500000	     10.40883914	      4.18129573	      1.73262289	     -0.39854252	      0.92308899	     -0.76386148	     25.44284818	     -1.12669615	     -3.19652001	     59.72952658	      1.04247690	     17.09732269	      0.00000000	      0.00000000	     46.59129855	      5.27996088	      2.93099916	     12.09571660	      0.21111008	     -4.63239827	      0.00000000	      0.00000000	    -39.15031667	     -1.50721139	     -1.71571169	     88.81353329	    -14.70360772	     25.43349261	     47.38456840	     87.36550921	      0.00000000	      0.00000000	     89.07182998	     -8.09818600	     25.54486332	     42.03373301	     86.09599521	      0.00000000	      0.00000000
      2.18000000	     10.43814987	      4.14065787	      1.75173528	     -0.39882399	      0.92187853	     -0.76383533	     25.54978934	     -1.03724598	     -3.13927541	     59.97083632	      1.04668855	     17.43497267	      0.00000000	      0.00000000	     46.72271497	      5.25925673	      2.91714322	     12.19171341	      0.21278554	     -4.64626744	      0.00000000	      0.00000000	    -39.24913969	     -1.45542944	     -1.70258710	     88.83051406	    -14.49734267	     24.91228160	     47.34057938	     87.54230203	      0.00000000	      0.00000000	     89.08034918	     -8.03137727	     25.12899166	     42.03903163	     86.83105013	      0.00000000	      0.00000000
      2.18500000	     10.42197003	      4.16331869	      1.75558551	     -0.39911730	      0.92059761	     -0.76383787	     25.79456993	     -1.04289179	     -3.08276374	     60.36350864	      1.05354197	     17.40462699	      0.00000000	      0.00000000	     46.83767557	      5.27714865	      2.93129459	     12.15137161	      0.21208144	     -4.71113948	      0.00000000	      0.00000000	    -39.30662683	     -1.48596798	     -1.70035710	     88.94664091	    -14.63430681	     25.31861213	     47.38794061	     87.40233609	      0.00000000	      0.00000000	     89.14488268	     -8.12043213	     25.40256826	     42.18455148	     86.26669570	      0.00000000	      0.00000000
      2.19000000	     10.43867565	      4.11241915	      1.78912406	     -0.39932299	      0.91939501	     -0.76380812	     25.91363506	     -0.95874170	     -3.06588615	     60.61524414	      1.05793559	     17.75048653	      0.00000000	      0.00000000	     46.98336601	      5.25726801	      2.97570657	     12.27392375	      0.21422038	     -4.54602686	      0.00000000	      0.00000000	    -39.38569144	     -1.43605183	     -1.72873898	     88.94491117	    -14.43084972	     24.83435399	     47.26875638	     87.74557084	      0.00000000	      0.00000000	     89.16959954	     -8.06428487	     25.12644534	     42.17463060	     86.42021721	      0.00000000	      0.00000000
      2.19500000	     10.42740882	      4.10977133	      1.79925079	     -0.39966213	      0.91815037	     -0.76381110	     26.10424687	     -0.93254816	     -3.00758997	     60.90820915	      1.06304879	     17.84561468	      0.00000000	      0.00000000	     47.10783043	      5.26452008	      2.97518399	     12.24729738	      0.21375566	     -4.71368915	      0.00000000	      0.00000000	    -39.45268560	     -1.45127690	     -1.70506368	     88.97945795	    -14.45007526	     24.77537996	     47.34754365	     87.56586864	      0.00000000	      0.00000000	     89.21544686	     -7.99612935	     24.93189185	     42.19483520	     86.79398557	      0.00000000	      0.00000000
      2.20000000	     10.42929060	      4.11872025	      1.79767790	     -0.39990599	      0.91695322	     -0.76379570	     26.28250990	     -0.91822400	     -2.95775723	     61.22191161	      1.06852393	     17.95341893	      0.00000000	      0.00000000	     47.22186752	      5.27380175	      2.98511315	     12.26324260	      0.21403396	     -4.73529143	      0.00000000	      0.00000000	    -39.52630637	     -1.46955893	     -1.70542968	     89.02055649	    -14.43856475	     24.70663599	     47.34770450	     87.55036170	      0.00000000	      0.00000000	     89.24668095	     -7.95847918	     24.79271231	     42.21434309	     86.81929085	      0.00000000	      0.00000000
      2.20500000	     10.36259879	      4.10205988	      1.81068852	     -0.40017816	      0.91558395	     -0.76380544	     26.53976875	     -0.89080289	     -2.92896405	     61.52902761	      1.07388412	     17.99226887	      0.00000000	      0.00000000	     47.42444762	      5.27655390	      3.03992783	     12.29653693	      0.21461506	     -4.71125155	      0.00000000	      0.00000000	    -39.53458308	     -1.47372385	     -1.67383023	     89.07983273	    -14.60773131	     25.05124579	     47.55208803	     87.44813517	      0.00000000	      0.00000000	     89.31393978	     -8.06640523	     25.16662409	     42.41561937	     86.34418295	      0.00000000	      0.00000000
      2.21000000	     10.37418455	      4.08774358	      1.83310848	     -0.40044062	      0.91438203	     -0.76382548	     26.68926876	     -0.84911104	     -2.88171043	     61.81647508	      1.07890102	     18.24670057	      0.00000000	      0.00000000	     47.55326162	      5.28201025	      3.03905051	     12.36978547	      0.21589348	     -4.66044193	      0.00000000	      0.00000000	    -39.61079120	     -1.45462744	     -1.70814198	     89.10542615	    -14.41230882	     24.60015936	     47.40483067	     87.57470480	      0.00000000	      0.00000000	     89.31808805	     -7.97318135	     24.71468982	     42.35303513	     86.69286884	      0.00000000	      0.00000000
      2.21500000	     10.37055657	      4.07053065	      1.84142028	     -0.40071763	      0.91317733	     -0.76383372	     26.86211438	     -0.81452208	     -2.85336341	     62.10251292	      1.08389332	     18.38422576	      0.00000000	      0.00000000	     47.67451207	      5.26875457	      2.99110264	     12.35976084	      0.21571852	     -4.70465983	      0.00000000	      0.00000000	    -39.68246287	     -1.44305725	     -1.69561990	     89.15160489	    -14.38608126	     24.54319095	     47.40590076	     87.52517668	      0.00000000	      0.00000000	     89.34796462	     -7.91594263	     24.46570216	     42.37091512	     86.85358338	      0.00000000	      0.00000000
      2.22000000	     10.32279389	      4.04649370	      1.84091729	     -0.40096372	      0.91186144	     -0.76383828	     27.07878794	     -0.76114540	     -2.80655644	     62.37701055	      1.08868421	     18.56516413	      0.00000000	      0.00000000	     47.87610196	      5.25058898	      3.00061345	     12.43620201	      0.21705267	     -4.67566827	      0.00000000	      0.00000000	    -39.69985655	     -1.43561306	     -1.69282152	     89.19032896	    -14.36734194	     24.55096019	     47.44001146	     87.57849450	      0.00000000	      0.00000000	     89.37289255	     -7.94207671	     24.46850104	     42.45208969	     86.65749451	      0.00000000	      0.00000000
